<?xml version="1.0" standalone="no"?>
<!DOCTYPE svg PUBLIC "-//W3C//DTD SVG 20010904//EN"
 "http://www.w3.org/TR/2001/REC-SVG-20010904/DTD/svg10.dtd">
<svg version="1.0" xmlns="http://www.w3.org/2000/svg"
 width="226.000000pt" height="225.000000pt" viewBox="0 0 226.000000 225.000000"
 preserveAspectRatio="xMidYMid meet">

<g transform="translate(0.000000,225.000000) scale(0.100000,-0.100000)"
fill="#000000" stroke="none">
<path d="M772 1687 c-17 -20 -58 -156 -103 -338 l-42 -169 -39 0 c-35 0 -39
-2 -36 -22 2 -17 11 -24 32 -26 28 -4 28 -4 22 -55 -4 -29 -11 -56 -16 -60 -4
-5 -32 -12 -61 -15 -45 -6 -54 -10 -54 -27 0 -18 6 -20 53 -17 42 2 52 0 52
-13 0 -9 -11 -84 -25 -168 -34 -211 -34 -221 -5 -252 13 -14 27 -25 30 -25 4
0 10 27 14 60 16 140 65 403 76 410 7 4 42 10 78 14 79 8 81 9 75 39 -4 22 -6
23 -74 14 -38 -6 -72 -8 -74 -5 -3 3 -2 23 3 44 8 38 9 39 48 35 75 -8 79 -7
82 16 3 19 -3 22 -52 28 -36 5 -56 12 -56 21 0 38 97 404 112 419 6 7 18 0 35
-20 14 -16 50 -56 80 -87 l55 -58 199 0 199 0 57 76 c49 65 58 73 64 56 9 -23
27 -215 31 -317 3 -77 -4 -95 -33 -95 -14 0 -19 -7 -19 -26 0 -22 4 -25 28
-22 24 3 27 -1 30 -29 3 -32 2 -33 -32 -33 -25 0 -36 -4 -36 -15 0 -8 -1 -18
-2 -22 -2 -4 12 -10 29 -15 l33 -8 -17 -43 c-9 -23 -22 -49 -29 -57 -7 -8 -14
-20 -16 -26 -2 -6 44 -46 102 -89 58 -43 134 -103 168 -134 l64 -55 19 24 c10
14 19 28 19 31 0 8 -94 87 -190 159 -47 35 -87 65 -89 66 -2 2 7 29 19 59 22
54 24 56 54 51 17 -3 53 -8 79 -12 47 -6 49 -6 45 17 -3 21 -10 25 -73 34
l-70 10 -3 52 -3 53 41 6 c45 7 53 14 44 38 -5 12 -17 15 -47 14 l-41 -3 -3
65 c-11 217 -42 427 -65 442 -32 20 -48 8 -138 -110 l-55 -72 -170 1 -170 0
-88 99 c-89 101 -119 119 -145 87z"/>
<path d="M977 1214 c-20 -21 -3 -84 24 -84 20 0 34 34 27 67 -3 18 -38 30 -51
17z"/>
<path d="M1299 1199 c-14 -28 3 -69 30 -69 32 0 45 72 15 84 -25 10 -33 7 -45
-15z"/>
<path d="M1143 1075 c-5 -15 22 -55 38 -55 14 0 49 33 49 46 0 26 -77 34 -87
9z"/>
</g>
</svg>
